<svg width="32" height="33" viewBox="0 0 32 33" fill="none" xmlns="http://www.w3.org/2000/svg">
<g id="iconGas">
<path id="icon/gas" fill-rule="evenodd" clip-rule="evenodd" d="M16.5261 3.4427L15.9594 4.26496L15.3892 3.44528L15.9568 3.0163L16.5261 3.4427ZM18.9376 29.7985C20.0069 29.4034 21.1076 28.811 22.1017 28.0212C24.121 26.417 25.7809 23.9283 25.7809 20.5241C25.7809 15.3835 23.4226 11.0983 21.1406 8.14758C19.9938 6.66464 18.8485 5.49538 17.9889 4.69574C17.5586 4.29538 17.1983 3.98622 16.9432 3.77528C16.8155 3.66978 16.7141 3.58873 16.6431 3.53303C16.6077 3.50518 16.5798 3.48365 16.5601 3.46856L16.5368 3.45077L16.5298 3.44551L16.5261 3.4427C16.5261 3.4427 16.5261 3.4427 15.9594 4.26496C15.3892 3.44528 15.3892 3.44528 15.3892 3.44528L15.3855 3.44811L15.3786 3.45338L15.3554 3.4712C15.3359 3.48631 15.3083 3.50786 15.2731 3.53573C15.2028 3.59147 15.1022 3.67256 14.9757 3.7781C14.7227 3.98913 14.3657 4.29838 13.9391 4.69882C13.0873 5.49865 11.9523 6.66807 10.8158 8.15112C8.55421 11.1025 6.21875 15.3865 6.21875 20.5241C6.21875 23.9283 7.8786 26.4169 9.89788 28.0212C10.7977 28.736 11.7849 29.2892 12.7571 29.6807C12.9919 29.8095 13.2352 29.9224 13.4854 30.0184C14.2763 30.3219 15.119 30.4497 15.9595 30.3941C16.8003 30.4494 17.6433 30.3215 18.4346 30.0184C18.6057 29.9529 18.7735 29.8795 18.9376 29.7985ZM22.3488 24.9731C23.2495 23.7999 23.8384 22.3244 23.8384 20.5241C23.8384 16.0341 21.7715 12.1897 19.6284 9.41851C18.5626 8.04049 17.4954 6.95071 16.6955 6.20655C16.4129 5.94362 16.1644 5.72456 15.9622 5.55191C15.7625 5.72405 15.5176 5.94206 15.2392 6.20347C14.4468 6.94744 13.3894 8.03706 12.3336 9.41497C10.2105 12.1855 8.16128 16.0311 8.16128 20.5241C8.16128 22.2693 8.71464 23.7093 9.569 24.8645C9.52428 24.4834 9.51288 24.0979 9.53551 23.7127C9.54533 20.3616 11.0459 17.6521 12.4808 15.8211C13.2051 14.8969 13.928 14.1764 14.4711 13.6856C14.7432 13.4397 14.9717 13.25 15.1349 13.1199C15.2165 13.0548 15.2819 13.0045 15.3284 12.9694L15.3836 12.9282L15.4 12.9163L15.4052 12.9124L15.4071 12.9111C15.4071 12.9111 15.4085 12.9101 15.9593 13.7441C16.5089 12.9093 16.5095 12.9097 16.5095 12.9097L16.5122 12.9116L16.5175 12.9155L16.5339 12.9274L16.5892 12.9686C16.6358 13.0037 16.7014 13.0539 16.7832 13.119C16.9469 13.2491 17.176 13.4387 17.4489 13.6846C17.9935 14.1753 18.7185 14.8958 19.4449 15.8199C20.8842 17.6511 22.3898 20.3615 22.3992 23.7144C22.4227 24.1358 22.4056 24.5575 22.3488 24.9731ZM15.9593 13.7441L16.5095 12.9097L15.9584 12.5154L15.4071 12.9111L15.9593 13.7441ZM15.9602 15.0239C16.0282 15.0826 16.1012 15.1469 16.1786 15.2166C16.6594 15.6498 17.3016 16.2882 17.9423 17.1034C19.2329 18.7452 20.4567 21.0244 20.4567 23.7458V23.7778L20.4586 23.8097C20.4959 24.4233 20.4065 25.0381 20.1965 25.6126C19.9864 26.1871 19.6607 26.708 19.2412 27.1401C18.9321 27.4585 18.5775 27.7232 18.1909 27.9253C17.3779 28.2152 16.6143 28.3588 16.0095 28.3664C15.3425 28.3612 14.4791 28.189 13.568 27.8356C13.2452 27.6472 12.9475 27.4136 12.6833 27.1407C12.2651 26.7086 11.9408 26.1879 11.7325 25.6138C11.5242 25.0397 11.4367 24.4256 11.4758 23.8132L11.478 23.7795V23.7458C11.478 21.0234 12.6986 18.7439 13.9852 17.1022C14.624 16.2871 15.2642 15.6488 15.7435 15.2156C15.8203 15.1463 15.8927 15.0823 15.9602 15.0239Z" fill="url(#paint0_linear_4374_7370)"/>
</g>
<defs>
<linearGradient id="paint0_linear_4374_7370" x1="6.73004" y1="3.0163" x2="27.5649" y2="4.44816" gradientUnits="userSpaceOnUse">
<stop stop-color="#009CEA"/>
<stop offset="1" stop-color="#4632FF"/>
</linearGradient>
</defs>
</svg>
