<svg width="32" height="33" viewBox="0 0 32 33" fill="none" xmlns="http://www.w3.org/2000/svg">
<g id="iconDual">
<g id="Vector">
<path d="M12.3266 14.4066L7.35929 14.4866V13.992C7.35929 13.8102 7.39565 13.6284 7.46838 13.4538C7.5411 13.2866 7.64292 13.1338 7.77383 13.0029C7.90474 12.872 8.05747 12.7702 8.23201 12.7047C8.40656 12.632 8.58838 12.6029 8.77019 12.6029H11.3229C11.6938 12.6029 12.0502 12.7484 12.312 13.0102C12.472 13.1702 12.5884 13.3593 12.6466 13.5702C12.6975 13.7011 12.7193 13.8466 12.7193 13.992V14.3993H12.3266V14.4066Z" fill="url(#paint0_linear_4374_7380)"/>
<path d="M14.0138 24.2175C13.9847 24.0648 13.9484 23.912 13.8975 23.7593C13.8247 23.4975 13.7157 23.243 13.5847 23.0102C13.5847 23.0102 13.5847 23.0054 13.5847 22.9957C13.5847 22.9957 13.5775 22.9739 13.5702 22.9666C13.4756 22.7848 13.3593 22.6175 13.2357 22.4575H6.93019C6.72656 22.712 6.55929 22.9957 6.42838 23.2939C6.29747 23.5848 6.20292 23.8902 6.14474 24.2175C6.10838 24.4357 6.08656 24.6684 6.08656 24.9011C6.08656 27.1048 7.87565 28.8939 10.0793 28.8939C11.5993 28.8939 12.9229 28.043 13.592 26.792C13.8975 26.2248 14.072 25.5848 14.072 24.9011C14.072 24.6684 14.0502 24.4357 14.0138 24.2175ZM12.3338 27.3666C11.7156 27.9411 10.8938 28.2611 10.0429 28.2611C9.19201 28.2611 8.37747 27.9411 7.75201 27.3666C7.13383 26.792 6.74838 25.9993 6.68292 25.1484V24.2175H13.4102V25.1484C13.3811 25.5266 13.2866 25.8975 13.1338 26.2393C12.952 26.6611 12.6829 27.0466 12.3338 27.3666Z" fill="url(#paint1_linear_4374_7380)"/>
<path fill-rule="evenodd" clip-rule="evenodd" d="M20.9593 12.5157L20.4066 12.9084L20.9593 13.7448L21.5048 12.9084L20.9593 12.5157ZM20.9593 12.5157L20.4066 12.9084L20.9593 13.7448L21.5048 12.9084L20.9593 12.5157ZM26.1375 8.14479C24.9957 6.66115 23.8466 5.49752 22.9884 4.69752C22.5593 4.29752 22.1957 3.98479 21.9412 3.77388C21.8175 3.66479 21.7157 3.58479 21.643 3.53388C21.6066 3.50479 21.5775 3.48297 21.5557 3.46843L21.5339 3.44661H21.5266C21.5266 3.44661 21.4539 3.54115 20.9593 4.26115C20.7775 4.00661 20.6539 3.83206 20.5739 3.70843C20.5448 3.66479 20.5157 3.62843 20.4939 3.59934L20.3848 3.44661H20.3775L20.3557 3.46843C20.3339 3.48297 20.3048 3.50479 20.2684 3.53388C20.203 3.59206 20.1012 3.67206 19.9775 3.77388C19.723 3.98479 19.3666 4.29752 18.9375 4.69752C18.3703 5.2357 17.6721 5.93388 16.923 6.79206C16.5666 7.20661 16.1884 7.66479 15.8175 8.15206C15.7884 8.1957 15.7521 8.23934 15.7157 8.28297C15.9703 8.63933 16.1957 9.01752 16.3775 9.41752C16.5084 9.69388 16.6175 9.98479 16.6975 10.2757C16.9084 9.97752 17.1193 9.68661 17.3303 9.41024C17.563 9.10479 17.7957 8.82115 18.0284 8.54479C18.8357 7.57024 19.6212 6.78479 20.2393 6.20297C20.5157 5.94115 20.763 5.72297 20.9593 5.54843C21.163 5.72297 21.4103 5.94115 21.6939 6.20297C22.4939 6.95206 23.563 8.0357 24.6248 9.41752C26.7703 12.1884 28.8357 16.0357 28.8357 20.523C28.8357 22.3266 28.2466 23.7957 27.3448 24.9739C27.403 24.5593 27.4175 24.1375 27.3957 23.7157C27.3884 20.363 25.883 17.6502 24.443 15.8175C23.7157 14.8939 22.9884 14.1739 22.4503 13.6866C22.1739 13.4393 21.9484 13.2502 21.7812 13.1193C21.7012 13.0539 21.6357 13.003 21.5848 12.9666L21.5339 12.923H21.5193L21.5121 12.9084H21.5048L20.9593 12.5157L20.4066 12.9084L20.3921 12.9302L20.3339 12.9666C20.2903 13.003 20.2248 13.0539 20.1375 13.1193C19.9775 13.2502 19.7521 13.4393 19.4757 13.6866C19.2139 13.9193 18.9157 14.203 18.5957 14.5375C18.2466 14.9012 17.8612 15.3302 17.483 15.8175C16.1593 17.5121 14.7775 19.963 14.5666 22.9666C14.5448 23.2066 14.5375 23.4539 14.5375 23.7084C14.5303 23.8757 14.523 24.0502 14.5375 24.2175C14.5375 24.4357 14.5521 24.6466 14.5739 24.8648C14.4212 24.6612 14.283 24.443 14.1521 24.2175C14.0648 24.0721 13.9775 23.9193 13.9048 23.7593C13.7812 23.5193 13.6793 23.2721 13.5921 23.0102C13.5921 23.0102 13.5921 23.0054 13.5921 22.9957C13.5921 22.9957 13.5848 22.9739 13.5848 22.9666H13.5775C13.483 22.7848 13.3666 22.6175 13.243 22.4575H11.4175C11.5412 23.083 11.7303 23.6721 11.9703 24.2175H13.4248V25.1484C13.3957 25.5266 13.3012 25.8975 13.1484 26.2393C13.2939 26.4357 13.4466 26.6175 13.6066 26.7921C13.9193 27.1484 14.2539 27.4757 14.6103 27.7739C14.7048 27.8612 14.8066 27.9412 14.9084 28.0212C15.8103 28.7339 16.7993 29.2866 17.7666 29.6793C18.0066 29.8102 18.2466 29.9193 18.5012 30.0139C19.2866 30.3193 20.1303 30.4502 20.9739 30.3921C21.8103 30.4502 22.6539 30.3193 23.4466 30.0139C23.6212 29.9484 23.7884 29.8757 23.9484 29.7957C25.0175 29.403 26.123 28.8066 27.1121 28.0212C29.1339 26.4139 30.7921 23.9266 30.7921 20.523C30.7921 15.3812 28.4357 11.0975 26.1521 8.14479H26.1375ZM25.1921 25.6139C24.9812 26.1884 24.6612 26.7048 24.2393 27.1412C23.9339 27.4539 23.5775 27.723 23.1921 27.9266C22.3775 28.2102 21.6139 28.3557 21.0103 28.363C20.3412 28.363 19.4757 28.1884 18.5666 27.8321C18.2466 27.643 17.9484 27.4102 17.6793 27.1412C17.2648 26.7048 16.9375 26.1884 16.7339 25.6139C16.523 25.0393 16.4357 24.4212 16.4721 23.8102V23.7812L16.4793 23.7448C16.4793 21.0248 17.6939 18.7412 18.9812 17.0975C19.6212 16.283 20.2612 15.6502 20.7412 15.2139C20.8212 15.1484 20.8939 15.083 20.9593 15.0248C21.0248 15.083 21.0975 15.1484 21.1775 15.2139C21.6575 15.6502 22.2975 16.2902 22.9375 17.1048C24.2321 18.7412 25.4539 21.0248 25.4539 23.7448V23.8102C25.4975 24.4212 25.403 25.0393 25.1921 25.6139ZM12.6466 13.5702C12.5375 13.8466 12.4284 14.1229 12.3266 14.4066L12.7193 14.4066L12.7193 13.992C12.7193 13.8466 12.6975 13.7011 12.6466 13.5702ZM20.9521 3.01752L20.3848 3.44661L20.4939 3.59934C20.4939 3.59934 20.5448 3.66479 20.5739 3.70843C20.6539 3.83206 20.7775 4.00661 20.9593 4.26115C21.4539 3.54115 21.5193 3.45388 21.5266 3.44661L20.9521 3.01752Z" fill="url(#paint2_linear_4374_7380)"/>
<path d="M18.0936 8.68291C18.0717 8.63927 18.0503 8.58843 18.0284 8.54479C17.7303 7.91933 17.3666 7.33024 16.923 6.79206C16.3484 6.07206 15.6572 5.43927 14.879 4.93018C13.4681 4.01382 11.8245 3.512 10.1445 3.49745H9.59174C7.92628 3.58473 6.31901 4.13018 4.95901 5.09018C3.59901 6.04291 2.52992 7.36654 1.88992 8.90836C1.24992 10.4429 1.05356 12.1302 1.32992 13.7665C1.60628 15.4102 2.3481 16.9447 3.45356 18.1811C4.36992 19.2502 4.87174 20.6175 4.84992 22.0284V24.2175H15.3154V21.9629C15.3154 20.5447 15.8099 19.1629 16.7263 18.0793C17.6136 17.0538 18.2536 15.8393 18.5881 14.5375C18.6754 14.2247 18.7408 13.9047 18.7845 13.5847C19.0245 11.9193 18.7845 10.2175 18.0936 8.68291ZM6.6681 22.4575V22.1302C6.6681 20.2829 6.02083 18.4865 4.80628 17.0902C4.18083 16.3993 3.7081 15.592 3.40265 14.712C3.10446 13.832 2.98083 12.9011 3.04628 11.9702C3.14083 10.2611 3.85356 8.64654 5.06083 7.432C6.2681 6.21745 7.88265 5.49018 9.59174 5.38109H10.0426L9.99901 5.33745C11.3445 5.33745 12.6608 5.72291 13.7881 6.45018C14.5517 6.93018 15.2066 7.5557 15.7157 8.28297C15.9703 8.63933 16.1957 9.01752 16.3775 9.41752C16.5084 9.69388 16.6175 9.98479 16.6975 10.2757C17.0103 11.2575 17.0972 12.2975 16.9517 13.3229C16.7626 14.6465 16.1954 15.8902 15.3154 16.9084C14.1081 18.3193 13.439 20.1084 13.4317 21.9629V22.4575H6.6681Z" fill="url(#paint3_linear_4374_7380)"/>
<path d="M15.3084 22.9666V25.112C15.3084 25.8029 15.1848 26.4866 14.923 27.1338C14.8284 27.352 14.7193 27.5702 14.5957 27.7738C14.3775 28.1593 14.0939 28.5229 13.7739 28.8429C13.2866 29.3302 12.6975 29.7084 12.0575 29.9702C11.4175 30.232 10.7266 30.3556 10.0357 30.3484C8.66113 30.3484 7.3375 29.7956 6.36295 28.8211C5.38841 27.8538 4.84295 26.5302 4.84295 25.1484V23.2938H6.68295L6.68292 25.1484C6.74838 25.9993 7.13383 26.792 7.75201 27.3666C8.37747 27.9411 9.19929 28.2611 10.0429 28.2611C10.8866 28.2611 11.7156 27.9411 12.3338 27.3666C12.6829 27.0466 12.952 26.6611 13.1338 26.2393C13.2866 25.8975 13.3811 25.5266 13.4102 25.1484L13.4102 22.9666H15.3084Z" fill="url(#paint4_linear_4374_7380)"/>
<path d="M12.7193 13.992V14.3993H12.3266L7.35929 14.4866V13.992C7.35929 13.8102 7.39565 13.6284 7.46838 13.4538C7.5411 13.2866 7.64292 13.1338 7.77383 13.0029C7.90474 12.872 8.05747 12.7702 8.23201 12.7047C8.40656 12.632 8.58838 12.6029 8.77019 12.6029H11.3229C11.6938 12.6029 12.0502 12.7484 12.312 13.0102C12.472 13.1702 12.5884 13.3593 12.6466 13.5702C12.6975 13.7011 12.7193 13.8466 12.7193 13.992Z" fill="url(#paint5_linear_4374_7380)"/>
</g>
</g>
<defs>
<linearGradient id="paint0_linear_4374_7380" x1="1.98124" y1="3.01752" x2="33.3005" y2="6.27289" gradientUnits="userSpaceOnUse">
<stop stop-color="#009CEA"/>
<stop offset="1" stop-color="#4632FF"/>
</linearGradient>
<linearGradient id="paint1_linear_4374_7380" x1="1.98124" y1="3.01752" x2="33.3005" y2="6.27289" gradientUnits="userSpaceOnUse">
<stop stop-color="#009CEA"/>
<stop offset="1" stop-color="#4632FF"/>
</linearGradient>
<linearGradient id="paint2_linear_4374_7380" x1="1.98124" y1="3.01752" x2="33.3005" y2="6.27289" gradientUnits="userSpaceOnUse">
<stop stop-color="#009CEA"/>
<stop offset="1" stop-color="#4632FF"/>
</linearGradient>
<linearGradient id="paint3_linear_4374_7380" x1="1.98124" y1="3.01752" x2="33.3005" y2="6.27289" gradientUnits="userSpaceOnUse">
<stop stop-color="#009CEA"/>
<stop offset="1" stop-color="#4632FF"/>
</linearGradient>
<linearGradient id="paint4_linear_4374_7380" x1="1.98124" y1="3.01752" x2="33.3005" y2="6.27289" gradientUnits="userSpaceOnUse">
<stop stop-color="#009CEA"/>
<stop offset="1" stop-color="#4632FF"/>
</linearGradient>
<linearGradient id="paint5_linear_4374_7380" x1="1.98124" y1="3.01752" x2="33.3005" y2="6.27289" gradientUnits="userSpaceOnUse">
<stop stop-color="#009CEA"/>
<stop offset="1" stop-color="#4632FF"/>
</linearGradient>
</defs>
</svg>
