<svg width="32" height="33" viewBox="0 0 32 33" fill="none" xmlns="http://www.w3.org/2000/svg">
<g id="iconLuz">
<g id="icon/light">
<path d="M10.8043 24.0027V21.8148C10.8258 20.4065 10.3312 19.0391 9.41383 17.9705C8.30308 16.7301 7.56645 15.2004 7.28925 13.5585C7.01205 11.9167 7.20563 10.2299 7.84756 8.6936C8.48948 7.15725 9.5535 5.83418 10.9164 4.87762C12.2793 3.92106 13.8852 3.37015 15.5483 3.2887H16.1004C17.7825 3.30401 19.4251 3.80042 20.8341 4.71927C22.2432 5.63812 23.3599 6.94104 24.0522 8.47412C24.7446 10.0072 24.9837 11.7064 24.7414 13.3711C24.4991 15.0357 23.7854 16.5962 22.6847 17.8683C21.7669 18.954 21.2665 20.3317 21.2738 21.7534V24.0027H10.8043ZM15.9982 5.12904H15.5483C13.8378 5.23683 12.2264 5.96903 11.0201 7.1866C9.81382 8.40418 9.09669 10.0223 9.00487 11.7338C8.93782 12.6636 9.059 13.5974 9.36115 14.4792C9.66331 15.3611 10.1402 16.173 10.7634 16.8663C11.9752 18.2688 12.6365 20.0636 12.6242 21.917V22.2442H19.3926V21.7534C19.3957 19.8929 20.0628 18.0947 21.2738 16.6823C22.1512 15.6648 22.7179 14.4167 22.9065 13.0864C23.0951 11.7561 22.8977 10.3997 22.3377 9.1784C21.7776 7.95711 20.8786 6.92238 19.7475 6.19726C18.6164 5.47215 17.3008 5.08718 15.9573 5.08814" fill="url(#paint0_linear_4374_7360)"/>
<path d="M15.9936 30.1341C14.6161 30.1341 13.295 29.5869 12.321 28.6129C11.347 27.6389 10.7998 26.3178 10.7998 24.9403V23.0795H12.6401V24.9403C12.7062 25.7871 13.0892 26.5779 13.7128 27.1546C14.3363 27.7314 15.1544 28.0518 16.0038 28.0518C16.8532 28.0518 17.6714 27.7314 18.2949 27.1546C18.9184 26.5779 19.3015 25.7871 19.3676 24.9403V22.7523H21.2693V24.8994C21.2748 25.5918 21.1418 26.2784 20.8781 26.9187C20.6145 27.559 20.2254 28.1401 19.7339 28.6278C19.2423 29.1155 18.6582 29.5001 18.0159 29.7587C17.3736 30.0174 16.686 30.1451 15.9936 30.1341Z" fill="url(#paint1_linear_4374_7360)"/>
<path d="M13.317 14.2726V13.7818C13.317 13.5975 13.3536 13.415 13.4248 13.245C13.4959 13.0749 13.6002 12.9207 13.7315 12.7913C13.8628 12.6619 14.0185 12.5599 14.1895 12.4913C14.3606 12.4226 14.5436 12.3886 14.7279 12.3914H17.284C17.6527 12.3914 18.0064 12.5379 18.2672 12.7986C18.5279 13.0594 18.6744 13.4131 18.6744 13.7818V14.1908L13.317 14.2726Z" fill="url(#paint2_linear_4374_7360)"/>
</g>
</g>
<defs>
<linearGradient id="paint0_linear_4374_7360" x1="7.62802" y1="3.2887" x2="26.4578" y2="4.4811" gradientUnits="userSpaceOnUse">
<stop stop-color="#009CEA"/>
<stop offset="1" stop-color="#4632FF"/>
</linearGradient>
<linearGradient id="paint1_linear_4374_7360" x1="7.62802" y1="3.2887" x2="26.4578" y2="4.4811" gradientUnits="userSpaceOnUse">
<stop stop-color="#009CEA"/>
<stop offset="1" stop-color="#4632FF"/>
</linearGradient>
<linearGradient id="paint2_linear_4374_7360" x1="7.62802" y1="3.2887" x2="26.4578" y2="4.4811" gradientUnits="userSpaceOnUse">
<stop stop-color="#009CEA"/>
<stop offset="1" stop-color="#4632FF"/>
</linearGradient>
</defs>
</svg>
