<svg width="24" height="25" viewBox="0 0 24 25" fill="none" xmlns="http://www.w3.org/2000/svg">
<g id="icon/mail">
<path id="vector" fill-rule="evenodd" clip-rule="evenodd" d="M1.21689 6.69852C1.21678 6.70607 1.21677 6.71362 1.21686 6.72116V18.7116C1.21686 20.2438 2.46725 21.4942 3.99947 21.4942H19.9995C21.5317 21.4942 22.7821 20.2438 22.7821 18.7116V6.72114C22.7822 6.71361 22.7822 6.70608 22.782 6.69854C22.775 5.17226 21.5274 3.92896 19.9995 3.92896H3.99947C2.4716 3.92896 1.22396 5.17225 1.21689 6.69852ZM2.83943 6.34424C2.99674 5.85358 3.45947 5.49417 3.99947 5.49417H19.9995C20.5395 5.49417 21.0022 5.85358 21.1595 6.34424L11.9995 12.7563L2.83943 6.34424ZM21.2169 8.21469V18.7116C21.2169 19.3793 20.6672 19.929 19.9995 19.929H3.99947C3.3317 19.929 2.78208 19.3793 2.78208 18.7116V8.21469L11.5507 14.3527C11.8201 14.5413 12.1788 14.5413 12.4483 14.3527L21.2169 8.21469Z" fill="#374649"/>
</g>
</svg>
