<svg width="24" height="25" viewBox="0 0 24 25" fill="none" xmlns="http://www.w3.org/2000/svg">
<g id="icon/phone">
<path id="Vector" d="M22.0004 17.6318V20.6318C22.0016 20.9103 21.9445 21.1859 21.8329 21.4411C21.7214 21.6963 21.5577 21.9254 21.3525 22.1136C21.1473 22.3019 20.905 22.4453 20.6412 22.5345C20.3773 22.6237 20.0978 22.6568 19.8204 22.6318C16.7433 22.2974 13.7874 21.2459 11.1904 19.5618C8.77425 18.0264 6.72576 15.9779 5.19042 13.5618C3.5004 10.953 2.44866 7.98276 2.12042 4.89177C2.09543 4.61523 2.1283 4.33653 2.21692 4.07339C2.30555 3.81026 2.44799 3.56846 2.63519 3.36339C2.82238 3.15832 3.05023 2.99448 3.30421 2.88229C3.5582 2.7701 3.83276 2.71203 4.11042 2.71177H7.11042C7.59573 2.70699 8.06621 2.87885 8.43418 3.1953C8.80215 3.51175 9.0425 3.95121 9.11042 4.43177C9.23704 5.39183 9.47187 6.33449 9.81042 7.24177C9.94497 7.59969 9.97408 7.98868 9.89433 8.36265C9.81457 8.73661 9.62928 9.07988 9.36042 9.35177L8.09042 10.6218C9.51398 13.1253 11.5869 15.1982 14.0904 16.6218L15.3604 15.3518C15.6323 15.0829 15.9756 14.8976 16.3495 14.8179C16.7235 14.7381 17.1125 14.7672 17.4704 14.9018C18.3777 15.2403 19.3204 15.4751 20.2804 15.6018C20.7662 15.6703 21.2098 15.915 21.527 16.2893C21.8441 16.6636 22.0126 17.1413 22.0004 17.6318Z" stroke="#374649" stroke-width="2" stroke-linecap="round" stroke-linejoin="round"/>
</g>
</svg>
