<svg width="24" height="25" viewBox="0 0 24 25" fill="none" xmlns="http://www.w3.org/2000/svg">
<g id="icon/phone">
<path id="Vector" d="M22.0004 17.1317V20.1317C22.0016 20.4102 21.9445 20.6859 21.8329 20.9411C21.7214 21.1962 21.5577 21.4253 21.3525 21.6136C21.1473 21.8018 20.905 21.9452 20.6412 22.0344C20.3773 22.1236 20.0978 22.1568 19.8204 22.1317C16.7433 21.7973 13.7874 20.7459 11.1904 19.0617C8.77425 17.5264 6.72576 15.4779 5.19042 13.0617C3.5004 10.4529 2.44866 7.4827 2.12042 4.39171C2.09543 4.11517 2.1283 3.83647 2.21692 3.57333C2.30555 3.31019 2.44799 3.0684 2.63519 2.86333C2.82238 2.65826 3.05023 2.49442 3.30421 2.38223C3.5582 2.27004 3.83276 2.21197 4.11042 2.21171H7.11042C7.59573 2.20693 8.06621 2.37878 8.43418 2.69524C8.80215 3.01169 9.0425 3.45115 9.11042 3.93171C9.23704 4.89177 9.47187 5.83443 9.81042 6.74171C9.94497 7.09963 9.97408 7.48862 9.89433 7.86259C9.81457 8.23655 9.62928 8.57982 9.36042 8.85171L8.09042 10.1217C9.51398 12.6253 11.5869 14.6982 14.0904 16.1217L15.3604 14.8517C15.6323 14.5828 15.9756 14.3976 16.3495 14.3178C16.7235 14.238 17.1125 14.2672 17.4704 14.4017C18.3777 14.7403 19.3204 14.9751 20.2804 15.1017C20.7662 15.1702 21.2098 15.4149 21.527 15.7892C21.8441 16.1635 22.0126 16.6413 22.0004 17.1317Z" stroke="white" stroke-width="2" stroke-linecap="round" stroke-linejoin="round"/>
</g>
</svg>
