<svg width="21" height="21" viewBox="0 0 21 21" fill="none" xmlns="http://www.w3.org/2000/svg">
<path id="Vector" d="M20.1002 0.255901C20.1897 0.345468 20.2508 0.459335 20.2761 0.583356C20.3013 0.707378 20.2896 0.836089 20.2423 0.953501L12.7251 19.746C12.6588 19.9115 12.5482 20.0556 12.4054 20.1622C12.2625 20.2689 12.0931 20.3341 11.9156 20.3507C11.7381 20.3673 11.5594 20.3345 11.3994 20.2561C11.2393 20.1777 11.1039 20.0566 11.0082 19.9062L6.90269 13.4534L0.449892 9.34795C0.299156 9.25233 0.177766 9.11692 0.0991157 8.95668C0.0204656 8.79643 -0.0123866 8.61758 0.00418418 8.43984C0.0207549 8.26211 0.0861044 8.0924 0.193022 7.94946C0.299939 7.80652 0.444268 7.69589 0.610081 7.62978L19.4026 0.11509C19.52 0.0678239 19.6488 0.0560942 19.7728 0.0813579C19.8968 0.106622 20.0107 0.167765 20.1002 0.257193V0.255901ZM8.19195 13.0762L11.7588 18.6803L17.8731 3.3951L8.19195 13.0762ZM16.9597 2.48176L1.67457 8.59609L7.27991 12.1616L16.9597 2.48176Z" fill="white"/>
</svg>
